<?xml version="1.0" encoding="utf-8"?>
<!-- Generator: Adobe Illustrator 16.0.0, SVG Export Plug-In . SVG Version: 6.00 Build 0)  -->
<!DOCTYPE svg PUBLIC "-//W3C//DTD SVG 1.1//EN" "http://www.w3.org/Graphics/SVG/1.1/DTD/svg11.dtd">
<svg version="1.1" id="Layer_1" xmlns="http://www.w3.org/2000/svg" xmlns:xlink="http://www.w3.org/1999/xlink" x="0px" y="0px"
	 width="512px" height="512px" viewBox="0 0 512 512" enable-background="new 0 0 512 512" xml:space="preserve">
<path fill="#808080" d="M204.268,512L204.268,512L204.268,512z"/>
<g>
	<path fill="#808080" d="M319.136,366.149V125.093c0-5.978-4.891-10.868-10.868-10.868s-10.868,4.891-10.868,10.868v241.057
		c-21.628,4.999-37.713,24.235-37.713,47.385c0,26.735,21.845,48.581,48.581,48.581s48.58-21.736,48.58-48.581
		C356.957,390.385,340.764,371.04,319.136,366.149z M308.268,440.271c-14.781,0-26.845-12.064-26.845-26.845
		c0-14.781,12.063-26.845,26.845-26.845s26.844,12.063,26.844,26.845C335.221,428.315,323.156,440.271,308.268,440.271z"/>
	<path fill="#808080" d="M369.455,332.566V60.862C369.455,27.279,342.067,0,308.268,0c-33.801,0-61.188,27.279-61.188,60.862
		v271.705c-32.496,25.648-45.972,68.904-33.691,109.551c6.304,20.324,18.693,37.713,35.865,50.429
		C266.533,505.262,286.857,512,308.268,512s41.842-6.738,59.014-19.454s29.563-30.104,35.865-50.537
		C415.428,401.471,401.842,358.215,369.455,332.566z M382.171,435.705c-10.107,32.604-39.777,54.559-74.013,54.559
		c-34.234,0-63.904-21.845-74.012-54.449c-10.107-33.475,1.956-69.122,29.996-88.793c2.935-2.065,4.674-5.326,4.674-8.912V60.971
		c0-21.193,18.149-39.125,39.451-39.125l0,0c21.41,0,39.451,17.932,39.234,39.017v277.139c0,3.586,1.738,6.847,4.673,8.911
		C380.215,366.584,392.278,402.34,382.171,435.705z"/>
	<path fill="#808080" d="M195.456,327.241h-62.601c-5.978,0-10.868,4.891-10.868,10.868s4.891,10.868,10.868,10.868h62.601
		c5.978,0,10.868-4.891,10.868-10.868S201.433,327.241,195.456,327.241z"/>
	<path fill="#808080" d="M195.456,176.391h-37.93c-5.978,0-10.868,4.891-10.868,10.868s4.891,10.868,10.868,10.868h37.93
		c5.978,0,10.868-4.891,10.868-10.868S201.433,176.391,195.456,176.391z"/>
	<path fill="#808080" d="M195.456,126.397h-62.601c-5.978,0-10.868,4.891-10.868,10.868s4.891,10.868,10.868,10.868h62.601
		c5.978,0,10.868-4.891,10.868-10.868S201.433,126.397,195.456,126.397z"/>
	<path fill="#808080" d="M195.456,75.534h-37.93c-5.978,0-10.868,4.891-10.868,10.868s4.891,10.868,10.868,10.868h37.93
		c5.978,0,10.868-4.891,10.868-10.868S201.433,75.534,195.456,75.534z"/>
	<path fill="#808080" d="M195.456,25.54h-62.601c-5.978,0-10.868,4.891-10.868,10.868s4.891,10.868,10.868,10.868h62.601
		c5.978,0,10.868-4.891,10.868-10.868S201.433,25.54,195.456,25.54z"/>
	<path fill="#808080" d="M195.456,277.248h-37.93c-5.978,0-10.868,4.891-10.868,10.867c0,5.978,4.891,10.869,10.868,10.869h37.93
		c5.978,0,10.868-4.892,10.868-10.869C206.324,282.139,201.433,277.248,195.456,277.248z"/>
	<path fill="#808080" d="M195.456,226.384h-62.601c-5.978,0-10.868,4.891-10.868,10.868s4.891,10.868,10.868,10.868h62.601
		c5.978,0,10.868-4.891,10.868-10.868S201.433,226.384,195.456,226.384z"/>
</g>
</svg>
